<?xml version="1.0" encoding="UTF-8"?>
<mxfile host="app.diagrams.net" agent="Mozilla/5.0 (Macintosh; Intel Mac OS X 10_15_7) AppleWebKit/537.36 (KHTML, like Gecko) Chrome/136.0.0.0 Safari/537.36" version="27.0.6">
  <diagram name="ページ1" id="fFbpO9Bv7MDPe0uVpzzJ">
    <mxGraphModel dx="973" dy="624" grid="1" gridSize="10" guides="1" tooltips="1" connect="1" arrows="1" fold="1" page="1" pageScale="1" pageWidth="827" pageHeight="1169" math="0" shadow="0">
      <root>
        <mxCell id="0" />
        <mxCell id="1" parent="0" />
        <mxCell id="9qGcUn2LHYFX-ov_3anf-19" value="Serverless API" style="fillColor=none;strokeColor=#5A6C86;dashed=1;verticalAlign=top;fontStyle=0;fontColor=#5A6C86;whiteSpace=wrap;html=1;" vertex="1" parent="1">
          <mxGeometry x="320" y="100" width="350" height="550" as="geometry" />
        </mxCell>
        <mxCell id="9qGcUn2LHYFX-ov_3anf-2" value="Infrastructure&#xa;System" style="sketch=0;points=[[0,0,0],[0.25,0,0],[0.5,0,0],[0.75,0,0],[1,0,0],[1,0.25,0],[1,0.5,0],[1,0.75,0],[1,1,0],[0.75,1,0],[0.5,1,0],[0.25,1,0],[0,1,0],[0,0.75,0],[0,0.5,0],[0,0.25,0]];rounded=1;absoluteArcSize=1;arcSize=0;html=1;strokeColor=none;gradientColor=none;shadow=0;dashed=0;fontSize=12;fontColor=#9E9E9E;align=left;verticalAlign=top;spacing=10;spacingTop=-4;whiteSpace=wrap;fillColor=#F3E5F5;" vertex="1" parent="1">
          <mxGeometry x="360" y="130" width="110" height="370" as="geometry" />
        </mxCell>
        <mxCell id="9qGcUn2LHYFX-ov_3anf-7" value="External&#xa;Infrastructure&#xa;3&lt;sup&gt;rd&lt;/sup&gt; Party" style="sketch=0;points=[[0,0,0],[0.25,0,0],[0.5,0,0],[0.75,0,0],[1,0,0],[1,0.25,0],[1,0.5,0],[1,0.75,0],[1,1,0],[0.75,1,0],[0.5,1,0],[0.25,1,0],[0,1,0],[0,0.75,0],[0,0.5,0],[0,0.25,0]];rounded=1;absoluteArcSize=1;arcSize=2;html=1;strokeColor=none;gradientColor=none;shadow=0;dashed=0;fontSize=12;fontColor=#9E9E9E;align=left;verticalAlign=top;spacing=10;spacingTop=-4;whiteSpace=wrap;fillColor=#E0F2F1;" vertex="1" parent="1">
          <mxGeometry x="510" y="130" width="120" height="510" as="geometry" />
        </mxCell>
        <mxCell id="9qGcUn2LHYFX-ov_3anf-17" value="Common APIs" style="fillColor=none;strokeColor=#5A6C86;dashed=1;verticalAlign=top;fontStyle=0;fontColor=#5A6C86;whiteSpace=wrap;html=1;" vertex="1" parent="1">
          <mxGeometry x="340" y="200" width="310" height="210" as="geometry" />
        </mxCell>
        <mxCell id="9qGcUn2LHYFX-ov_3anf-18" value="FesMap APIs" style="fillColor=none;strokeColor=#5A6C86;dashed=1;verticalAlign=top;fontStyle=0;fontColor=#5A6C86;whiteSpace=wrap;html=1;" vertex="1" parent="1">
          <mxGeometry x="500" y="440" width="150" height="190" as="geometry" />
        </mxCell>
        <mxCell id="9qGcUn2LHYFX-ov_3anf-12" style="edgeStyle=entityRelationEdgeStyle;rounded=0;orthogonalLoop=1;jettySize=auto;html=1;entryX=0;entryY=0.5;entryDx=0;entryDy=0;" edge="1" parent="1" source="9qGcUn2LHYFX-ov_3anf-3" target="9qGcUn2LHYFX-ov_3anf-6">
          <mxGeometry relative="1" as="geometry" />
        </mxCell>
        <mxCell id="9qGcUn2LHYFX-ov_3anf-13" style="edgeStyle=entityRelationEdgeStyle;rounded=0;orthogonalLoop=1;jettySize=auto;html=1;" edge="1" parent="1" source="9qGcUn2LHYFX-ov_3anf-3" target="9qGcUn2LHYFX-ov_3anf-8">
          <mxGeometry relative="1" as="geometry" />
        </mxCell>
        <mxCell id="9qGcUn2LHYFX-ov_3anf-14" style="edgeStyle=entityRelationEdgeStyle;rounded=0;orthogonalLoop=1;jettySize=auto;html=1;entryX=0;entryY=0.5;entryDx=0;entryDy=0;" edge="1" parent="1" source="9qGcUn2LHYFX-ov_3anf-3" target="9qGcUn2LHYFX-ov_3anf-9">
          <mxGeometry relative="1" as="geometry" />
        </mxCell>
        <mxCell id="9qGcUn2LHYFX-ov_3anf-15" style="edgeStyle=entityRelationEdgeStyle;rounded=0;orthogonalLoop=1;jettySize=auto;html=1;entryX=0;entryY=0.5;entryDx=0;entryDy=0;" edge="1" parent="1" source="9qGcUn2LHYFX-ov_3anf-3" target="9qGcUn2LHYFX-ov_3anf-10">
          <mxGeometry relative="1" as="geometry" />
        </mxCell>
        <mxCell id="9qGcUn2LHYFX-ov_3anf-21" style="edgeStyle=orthogonalEdgeStyle;rounded=0;orthogonalLoop=1;jettySize=auto;html=1;endArrow=none;startFill=0;entryX=1;entryY=0.5;entryDx=0;entryDy=0;" edge="1" parent="1" source="9qGcUn2LHYFX-ov_3anf-3" target="9qGcUn2LHYFX-ov_3anf-22">
          <mxGeometry relative="1" as="geometry">
            <mxPoint x="280" y="430.0000000000001" as="targetPoint" />
          </mxGeometry>
        </mxCell>
        <mxCell id="9qGcUn2LHYFX-ov_3anf-3" value="Cloud Functions&lt;br&gt;&amp;nbsp;for Firebase" style="editableCssRules=.*;html=1;shape=image;verticalLabelPosition=bottom;labelBackgroundColor=none;verticalAlign=top;aspect=fixed;imageAspect=0;image=data:image/svg+xml,PHN2ZyB4bWxucz0iaHR0cDovL3d3dy53My5vcmcvMjAwMC9zdmciIHhtbG5zOnY9Imh0dHBzOi8vdmVjdGEuaW8vbmFubyIgd2lkdGg9IjIwIiBoZWlnaHQ9IjE5Ljk4OTk5OTc3MTExODE2NCIgdmlld0JveD0iMCAwIDIwIDE5Ljk4OTk5OTc3MTExODE2NCI+JiN4YTsJPHN0eWxlIHR5cGU9InRleHQvY3NzIj4mI3hhOwkuc3Qwe2ZpbGw6IzQyODVmNDt9JiN4YTsJLnN0MXtmaWxsOiM2NjlkZjY7fSYjeGE7CS5zdDJ7ZmlsbDojYWVjYmZhO30mI3hhOwk8L3N0eWxlPiYjeGE7CTxwYXRoIGNsYXNzPSJzdDEiIGQ9Ik0zIDMuOTlMMCA2LjQydjcuMTNsMyAyLjQ0eiIvPiYjeGE7CTxwYXRoIGNsYXNzPSJzdDAiIGQ9Ik0zIDMuOTlsLTMgNCAzLTJ6bS0zIDhsMyA0di0yeiIvPiYjeGE7CTxwYXRoIGNsYXNzPSJzdDIiIGQ9Ik0wIDE1Ljk5bDQgNCAyLTItNi02em0uMDEtOEw1Ljk5IDJsLTItMkwwIDMuOTl6Ii8+JiN4YTsJPHBhdGggY2xhc3M9InN0MSIgZD0iTTE3IDE2bDMtMi40MlY2LjQ0TDE3IDR6Ii8+JiN4YTsJPHBhdGggY2xhc3M9InN0MCIgZD0iTTE3IDE2bDMtNC0zIDJ6bTMtOGwtMy00djJ6Ii8+JiN4YTsJPGcgY2xhc3M9InN0MiI+JiN4YTsJCTxwYXRoIGQ9Ik0yMCA0bC00LTQtMiAyIDYgNnptLS4wMSA4bC01Ljk4IDUuOTkgMiAyTDIwIDE2eiIvPiYjeGE7CQk8Y2lyY2xlIGN4PSI2IiBjeT0iOS45OSIgcj0iMSIvPiYjeGE7CQk8Y2lyY2xlIGN4PSIxMCIgY3k9IjkuOTkiIHI9IjEiLz4mI3hhOwkJPGNpcmNsZSBjeD0iMTMuOTkiIGN5PSI5Ljk5IiByPSIxIi8+JiN4YTsJPC9nPiYjeGE7PC9zdmc+;fontSize=9;" vertex="1" parent="1">
          <mxGeometry x="393" y="424" width="40" height="40" as="geometry" />
        </mxCell>
        <mxCell id="9qGcUn2LHYFX-ov_3anf-4" value="Firebase Auth" style="shape=image;html=1;verticalAlign=top;verticalLabelPosition=bottom;labelBackgroundColor=none;imageAspect=0;aspect=fixed;image=https://cdn1.iconfinder.com/data/icons/ionicons-fill-vol-2/512/logo-firebase-128.png;fontSize=9;" vertex="1" parent="1">
          <mxGeometry x="390" y="231" width="46" height="46" as="geometry" />
        </mxCell>
        <mxCell id="9qGcUn2LHYFX-ov_3anf-5" value="" style="endArrow=none;html=1;rounded=0;exitX=0.5;exitY=0;exitDx=0;exitDy=0;" edge="1" parent="1" source="9qGcUn2LHYFX-ov_3anf-3" target="9qGcUn2LHYFX-ov_3anf-4">
          <mxGeometry width="50" height="50" relative="1" as="geometry">
            <mxPoint x="420" y="390" as="sourcePoint" />
            <mxPoint x="410" y="280" as="targetPoint" />
          </mxGeometry>
        </mxCell>
        <mxCell id="9qGcUn2LHYFX-ov_3anf-6" value="Supabase&#xa;" style="shape=image;verticalAlign=top;aspect=fixed;imageAspect=0;editableCssRules=.*;image=data:image/svg+xml,PHN2ZyB4bWxucz0iaHR0cDovL3d3dy53My5vcmcvMjAwMC9zdmciIHZpZXdCb3g9IjAgMCAxMjggMTI4Ij48Zz48ZGVmcz48bGluZWFyR3JhZGllbnQgaWQ9ImRldmljb25TdXBhYmFzZTAiIHgxPSI1My45NzQiIHgyPSI5NC4xNjMiIHkxPSI1NC45NzQiIHkyPSI3MS44MjkiIGdyYWRpZW50VHJhbnNmb3JtPSJ0cmFuc2xhdGUoMjkuMzg3IDYwLjA5NilzY2FsZSgxLjE0MzYpIiBncmFkaWVudFVuaXRzPSJ1c2VyU3BhY2VPblVzZSI+PHN0b3Agb2Zmc2V0PSIwIiBzdG9wLWNvbG9yPSIjMjQ5MzYxIj48L3N0b3A+PHN0b3Agb2Zmc2V0PSIxIiBzdG9wLWNvbG9yPSIjM2VjZjhlIj48L3N0b3A+PC9saW5lYXJHcmFkaWVudD48bGluZWFyR3JhZGllbnQgaWQ9ImRldmljb25TdXBhYmFzZTEiIHgxPSIzNi4xNTYiIHgyPSI1NC40ODQiIHkxPSIzMC41NzgiIHkyPSI2NS4wODEiIGdyYWRpZW50VHJhbnNmb3JtPSJ0cmFuc2xhdGUoMjkuMzg3IDYwLjA5NilzY2FsZSgxLjE0MzYpIiBncmFkaWVudFVuaXRzPSJ1c2VyU3BhY2VPblVzZSI+PHN0b3Agb2Zmc2V0PSIwIj48L3N0b3A+PHN0b3Agb2Zmc2V0PSIxIiBzdG9wLW9wYWNpdHk9IjAiPjwvc3RvcD48L2xpbmVhckdyYWRpZW50PjwvZGVmcz48cGF0aCBmaWxsPSJ1cmwoI2Rldmljb25TdXBhYmFzZTApIiBkPSJNMTAyLjI0IDE4Ni4yMWMtMy4yNjcgNC4xMTctOS45MDQgMS44NjItOS45NzctMy4zOTdsLTEuMTU2LTc2LjkwNmg1MS43MTVjOS4zNjUgMCAxNC41ODcgMTAuODE3IDguNzYzIDE4LjE0OXoiIHRyYW5zZm9ybT0idHJhbnNsYXRlKC0yNy43MjIgLTYwLjMzOCkiPjwvcGF0aD48cGF0aCBmaWxsPSJ1cmwoI2Rldmljb25TdXBhYmFzZTEpIiBmaWxsLW9wYWNpdHk9Ii4yIiBkPSJNMTAyLjI0IDE4Ni4yMWMtMy4yNjcgNC4xMTctOS45MDQgMS44NjItOS45NzctMy4zOTdsLTEuMTU2LTc2LjkwNmg1MS43MTVjOS4zNjUgMCAxNC41ODcgMTAuODE3IDguNzYzIDE4LjE0OXoiIHRyYW5zZm9ybT0idHJhbnNsYXRlKC0yNy43MjIgLTYwLjMzOCkiPjwvcGF0aD48cGF0aCBmaWxsPSIjM2VjZjhlIiBkPSJNNTMuNDg0IDIuMTI4YzMuMjY3LTQuMTE3IDkuOTA1LTEuODYyIDkuOTc3IDMuMzk2bC41MDggNzYuOTA3SDEyLjkwMmMtOS4zNjUgMC0xNC41ODctMTAuODE3LTguNzY0LTE4LjE0OXoiPjwvcGF0aD48L2c+PC9zdmc+;fontSize=9;labelPosition=center;verticalLabelPosition=bottom;align=center;" vertex="1" parent="1">
          <mxGeometry x="546" y="230" width="48" height="48" as="geometry" />
        </mxCell>
        <mxCell id="9qGcUn2LHYFX-ov_3anf-8" value="&lt;font style=&quot;font-weight: normal;&quot;&gt;Wasabi&lt;br&gt;(AWS S3)&lt;/font&gt;" style="sketch=0;outlineConnect=0;fontColor=#232F3E;gradientColor=none;strokeColor=#ffffff;fillColor=#232F3E;dashed=0;verticalLabelPosition=bottom;verticalAlign=top;align=center;html=1;whiteSpace=wrap;fontSize=9;fontStyle=1;spacing=3;shape=mxgraph.aws4.productIcon;prIcon=mxgraph.aws4.s3;labelPosition=center;" vertex="1" parent="1">
          <mxGeometry x="540" y="314" width="60" height="60" as="geometry" />
        </mxCell>
        <mxCell id="9qGcUn2LHYFX-ov_3anf-9" value="LIFF API" style="shape=image;verticalAlign=top;aspect=fixed;imageAspect=0;editableCssRules=.*;image=data:image/svg+xml,PHN2ZyB4bWxucz0iaHR0cDovL3d3dy53My5vcmcvMjAwMC9zdmciIHZpZXdCb3g9IjAgMCAyNCAyNCI+PGc+PHBhdGggZmlsbD0iY3VycmVudENvbG9yIiBkPSJNMTMuNzggOS40NmEuMzguMzggMCAwIDAtLjM4LjM4djEuNjdMMTIgOS42NWEuNC40IDAgMCAwLS4zMy0uMTlhLjM4LjM4IDAgMCAwLS4zOC4zOHYyLjg0YS4zOC4zOCAwIDAgMCAuMzguMzhhLjM4LjM4IDAgMCAwIC4zOC0uMzhWMTFsMS4zOSAxLjkxYS4yNy4yNyAwIDAgMCAuMTUuMTFhLjMuMyAwIDAgMCAuMTQgMEEuMzMuMzMgMCAwIDAgMTQgMTNsLjEtLjA3YS40LjQgMCAwIDAgLjExLS4yN1Y5Ljg0YS4zOC4zOCAwIDAgMC0uNDMtLjM4TTkuMiAxMi4yN0g4LjE0VjkuODRhLjM4LjM4IDAgMCAwLS4zOC0uMzhhLjM4LjM4IDAgMCAwLS4zOC4zOHYyLjg0YS4zOC4zOCAwIDAgMCAuMzguMzhIOS4yYS4zOS4zOSAwIDAgMCAuMzktLjM4YS4zOS4zOSAwIDAgMC0uMzktLjQxbTEuMTEtMi44MWEuMzkuMzkgMCAwIDAtLjM5LjM4djIuODRhLjM5LjM5IDAgMCAwIC4zOS4zOGEuMzguMzggMCAwIDAgLjM4LS4zOFY5Ljg0YS4zOC4zOCAwIDAgMC0uMzgtLjM4TTE3LjkxIDJINi4wOUE0LjEgNC4xIDAgMCAwIDIgNi4wOXYxMS44MkE0LjEgNC4xIDAgMCAwIDYuMDkgMjJoMTEuODJBNC4xIDQuMSAwIDAgMCAyMiAxNy45MVY2LjA5QTQuMSA0LjEgMCAwIDAgMTcuOTEgMm0uMzEgMTIuMjhhMiAyIDAgMCAxLS4xMy4xN2E1LjUgNS41IDAgMCAxLS44LjhjLTIgMS44Ny01LjM2IDQuMTEtNS44MSAzLjc2cy42NC0xLjc2LS41My0yYTEgMSAwIDAgMS0uMjUgMGMtMy40NC0uNDgtNi0yLjg5LTYtNS43OGMwLTMuMjUgMy4yOS01Ljg4IDcuMzQtNS44OHM3LjM0IDIuNjMgNy4zNCA1Ljg4YTUgNSAwIDAgMS0xLjE2IDMuMDVtLTEuNzEtNC44MUgxNWEuMzguMzggMCAwIDAtLjM4LjM4djIuODRhLjM4LjM4IDAgMCAwIC4zOC4zOGgxLjQ4YS4zOC4zOCAwIDAgMCAuMzgtLjM4YS4zOC4zOCAwIDAgMC0uMzgtLjM4aC0xLjAzdi0uNmgxLjA2YS4zOS4zOSAwIDAgMCAuMzgtLjM5YS4zOC4zOCAwIDAgMC0uMzgtLjM4aC0xLjA2di0uNjFoMS4wNmEuMzguMzggMCAwIDAgLjM4LS4zOGEuMzguMzggMCAwIDAtLjM4LS40OCIgY2xhc3M9InAwLWZpbGwiPjwvcGF0aD48c3R5bGU+LnAwLWZpbGx7ZmlsbDpjdXJyZW50Q29sb3J9PC9zdHlsZT48L2c+PC9zdmc+;labelPosition=center;verticalLabelPosition=bottom;align=center;fontSize=9;" vertex="1" parent="1">
          <mxGeometry x="545" y="460" width="50" height="50" as="geometry" />
        </mxCell>
        <mxCell id="9qGcUn2LHYFX-ov_3anf-10" value="Mapbox API" style="shape=image;verticalAlign=top;aspect=fixed;imageAspect=0;editableCssRules=.*;image=data:image/svg+xml,PHN2ZyB4bWxucz0iaHR0cDovL3d3dy53My5vcmcvMjAwMC9zdmciIHZpZXdCb3g9IjAgMCAyNTYgMjU0Ij48Zz48cGF0aCBmaWxsPSIjNDg1MTYwIiBkPSJNMTI4IDBjNzAuNjk1IDAgMTI4IDU2LjY4OCAxMjggMTI2LjYyM3MtNTcuMzA1IDEyNi42MjMtMTI4IDEyNi42MjNTMCAxOTYuNTU4IDAgMTI2LjYyM1M1Ny4zMDUgMCAxMjggMG01OC43NDUgNjguNTFjLTI1LjQ4NS0yNS4wNjgtNjUuOC0yNi4wNjUtOTAuMTMzLTEuOTk0Yy00My4wMzYgNDIuNTc0LTMwLjM0NiAxMTcuNTY3LTI5LjgyIDEyMC41NWwuMDE2LjA5MXM3OC4xODIgMTMuODE2IDEyMS45NTItMjkuNDg0YzI0LjMzMy0yNC4wNyAyMy40Ny02NC4wOTQtMi4wMTUtODkuMTYzbS00NC4wNTkgNS42OThsMTIuNTI3IDI1LjQ5NWwyNS43NzIgMTIuMzkybC0yNS43NzIgMTIuMzkybC0xMi41MjcgMjUuNDk1bC0xMi41MjYtMjUuNDk1bC0yNS43NzMtMTIuMzkybDI1Ljc3My0xMi4zOTJ6Ij48L3BhdGg+PC9nPjwvc3ZnPg==;fontSize=9;labelPosition=center;verticalLabelPosition=bottom;align=center;" vertex="1" parent="1">
          <mxGeometry x="547.33" y="559" width="45.35" height="45" as="geometry" />
        </mxCell>
        <mxCell id="9qGcUn2LHYFX-ov_3anf-22" value="GraphQL" style="shape=image;verticalAlign=top;aspect=fixed;imageAspect=0;editableCssRules=.*;image=data:image/svg+xml,PHN2ZyB4bWxucz0iaHR0cDovL3d3dy53My5vcmcvMjAwMC9zdmciIHZpZXdCb3g9IjAgMCAyNTYgMjg4Ij48Zz48cGF0aCBmaWxsPSIjRTUzNUFCIiBmaWxsLXJ1bGU9ImV2ZW5vZGQiIGQ9Im0xNTIuNTc2IDMyLjk2M2w1OS4xNDYgMzQuMTVhMjUuOCAyNS44IDAgMCAxIDUuODE4LTQuNjA0YzEyLjI2Ni03LjA1MiAyNy45MTItMi44NjUgMzUuMDM3IDkuNDAyYzcuMDUyIDEyLjI2NyAyLjg2NSAyNy45MTItOS40MDIgMzUuMDM3YTI1LjcgMjUuNyAwIDAgMS02LjgzMSAyLjcydjY4LjMyNWEyNS43IDI1LjcgMCAwIDEgNi43NTggMi43MDJjMTIuMzQgNy4xMjUgMTYuNTI3IDIyLjc3MSA5LjQwMiAzNS4wMzhjLTcuMDUyIDEyLjI2Ni0yMi43NzEgMTYuNDUzLTM1LjAzOCA5LjQwMmEyNS41IDI1LjUgMCAwIDEtNi4zNC01LjE0N2wtNTguNzg2IDMzLjk0YTI1LjcgMjUuNyAwIDAgMSAxLjI5NSA4LjA4YzAgMTQuMTAzLTExLjQ1OCAyNS42MzYtMjUuNjM1IDI1LjYzNnMtMjUuNjM1LTExLjQ2LTI1LjYzNS0yNS42MzZjMC0yLjUyLjM2Mi00Ljk1NCAxLjAzNy03LjI1M2wtNTkuMTMtMzQuMTRhMjUuOCAyNS44IDAgMCAxLTUuNzM4IDQuNTJjLTEyLjM0IDcuMDUxLTI3Ljk4NiAyLjg2NC0zNS4wMzgtOS40MDJjLTcuMDUxLTEyLjI2Ny0yLjg2NC0yNy45MTMgOS40MDItMzUuMDM4YTI1LjcgMjUuNyAwIDAgMSA2Ljc1OC0yLjcwM3YtNjguMzI0YTI1LjcgMjUuNyAwIDAgMS02LjgzMS0yLjcyQy41NTggOTkuODk3LTMuNjI5IDg0LjE3OCAzLjQyMyA3MS45MTFzMjIuNzctMTYuNDU0IDM1LjAzNy05LjQwMmEyNS44IDI1LjggMCAwIDEgNS43OSA0LjU3NWw1OS4xNjMtMzQuMTU5YTI1LjcgMjUuNyAwIDAgMS0xLjA0OC03LjI5QzEwMi4zNjUgMTEuNDYgMTEzLjgyMyAwIDEyOCAwczI1LjYzNSAxMS40NTkgMjUuNjM1IDI1LjYzNWMwIDIuNTQ4LS4zNyA1LjAwNy0xLjA1OSA3LjMyOG0tNi4xNjIgMTAuNTIybDU5LjI4NyAzNC4yM2EyNS42IDI1LjYgMCAwIDAgMi40MzcgMTkuODMxYzMuNjA5IDYuMjc4IDkuNDg4IDEwLjQ0IDE2LjAxMyAxMi4wNjJ2NjguNDFxLS41LjEyMi0uOTkzLjI2NEwxNDUuNzI1IDQ0LjE3cS4zNTEtLjMzNi42ODktLjY4NG0tMzYuMTIzLjdsLTc3LjQzMiAxMzQuMTFhMjYgMjYgMCAwIDAtMS4wMS0uMjd2LTY4LjQxN2M2LjUyNS0xLjYyMiAxMi40MDQtNS43ODQgMTYuMDEzLTEyLjA2MmEyNS42IDI1LjYgMCAwIDAgMi40MjctMTkuODY5bDU5LjI3LTM0LjIycS4zNTkuMzcxLjczMi43MjdtMjQuODcyIDYuMDc1bDc3LjQxNCAxMzQuMDhhMjUuNSAyNS41IDAgMCAwLTQuNTEzIDUuNzU3YTI1LjcgMjUuNyAwIDAgMC0yLjcwMiA2Ljc1OEg1MC42NGEyNS43IDI1LjcgMCAwIDAtMi43MDQtNi43NThhMjUuOCAyNS44IDAgMCAwLTQuNTA2LTUuNzI0bDc3LjQyOS0xMzQuMTA3QTI1LjcgMjUuNyAwIDAgMCAxMjggNTEuMjdjMi40ODcgMCA0Ljg5LS4zNTIgNy4xNjMtMS4wMW0xMS43OTUgMTk0LjQ3OGw1OC45MDItMzQuMDA4YTI2IDI2IDAgMCAxLS40NzMtMS42ODJINTAuNjA3cS0uMTIzLjQ5OS0uMjY2Ljk5Mmw1OS4xOSAzNC4xNzVBMjUuNTYgMjUuNTYgMCAwIDEgMTI4IDIzNi4zNzNhMjUuNTYgMjUuNTYgMCAwIDEgMTguOTU4IDguMzY1Ij48L3BhdGg+PC9nPjwvc3ZnPg==;fontSize=9;labelPosition=center;verticalLabelPosition=bottom;align=center;" vertex="1" parent="1">
          <mxGeometry x="240" y="425" width="34.67" height="39" as="geometry" />
        </mxCell>
        <mxCell id="9qGcUn2LHYFX-ov_3anf-24" value="Client Apps" style="fillColor=none;strokeColor=#5A6C86;dashed=1;verticalAlign=top;fontStyle=0;fontColor=#5A6C86;whiteSpace=wrap;html=1;" vertex="1" parent="1">
          <mxGeometry x="30" y="90" width="170" height="560" as="geometry" />
        </mxCell>
        <mxCell id="9qGcUn2LHYFX-ov_3anf-35" style="edgeStyle=entityRelationEdgeStyle;rounded=0;orthogonalLoop=1;jettySize=auto;html=1;entryX=0;entryY=0.5;entryDx=0;entryDy=0;" edge="1" parent="1" source="9qGcUn2LHYFX-ov_3anf-25" target="9qGcUn2LHYFX-ov_3anf-22">
          <mxGeometry relative="1" as="geometry" />
        </mxCell>
        <mxCell id="9qGcUn2LHYFX-ov_3anf-25" value="Maru" style="shape=image;verticalAlign=top;aspect=fixed;imageAspect=0;editableCssRules=.*;image=data:image/svg+xml,PHN2ZyB4bWxucz0iaHR0cDovL3d3dy53My5vcmcvMjAwMC9zdmciIHZpZXdCb3g9IjAgMCAyNTYgMzE3Ij48Zz48ZGVmcz48bGluZWFyR3JhZGllbnQgaWQ9ImxvZ29zRmx1dHRlcjAiIHgxPSIzLjk1MiUiIHgyPSI3NS44OTclIiB5MT0iMjYuOTkzJSIgeTI9IjUyLjkxOSUiPjxzdG9wIG9mZnNldD0iMCUiPjwvc3RvcD48c3RvcCBvZmZzZXQ9IjEwMCUiIHN0b3Atb3BhY2l0eT0iMCI+PC9zdG9wPjwvbGluZWFyR3JhZGllbnQ+PC9kZWZzPjxwYXRoIGZpbGw9IiM0N0M1RkIiIGQ9Ik0xNTcuNjY2LjAwMUwuMDAxIDE1Ny42NjZsNDguOCA0OC44TDI1NS4yNjguMDAxem0tMS4wOTkgMTQ1LjM5NmwtODQuNDE4IDg0LjQxOGw0OC45ODQgNDkuNzE2bDQ4LjcxLTQ4LjcxbDg1LjQyNS04NS40MjR6Ij48L3BhdGg+PHBhdGggZmlsbD0iIzAwNTY5RSIgZD0ibTEyMS4xMzMgMjc5LjUzMWwzNy4wODIgMzcuMDgyaDk3LjA1MmwtODUuNDI1LTg1Ljc5MnoiPjwvcGF0aD48cGF0aCBmaWxsPSIjMDBCNUY4IiBkPSJtNzEuNiAyMzAuMzY0bDQ4LjgwMS00OC44MDFsNDkuNDQxIDQ5LjI1OGwtNDguNzA5IDQ4LjcxeiI+PC9wYXRoPjxwYXRoIGZpbGw9InVybCgjbG9nb3NGbHV0dGVyMCkiIGZpbGwtb3BhY2l0eT0iLjgiIGQ9Im0xMjEuMTMzIDI3OS41MzFsNDAuNTYtMTMuNDU5bDQuMDI5LTMxLjEzMXoiPjwvcGF0aD48L2c+PC9zdmc+;labelPosition=center;verticalLabelPosition=bottom;align=center;" vertex="1" parent="1">
          <mxGeometry x="94.80999999999999" y="162" width="40.38" height="50" as="geometry" />
        </mxCell>
        <mxCell id="9qGcUn2LHYFX-ov_3anf-36" style="edgeStyle=entityRelationEdgeStyle;rounded=0;orthogonalLoop=1;jettySize=auto;html=1;entryX=0;entryY=0.5;entryDx=0;entryDy=0;" edge="1" parent="1" source="9qGcUn2LHYFX-ov_3anf-26" target="9qGcUn2LHYFX-ov_3anf-22">
          <mxGeometry relative="1" as="geometry" />
        </mxCell>
        <mxCell id="9qGcUn2LHYFX-ov_3anf-26" value="Maru Admins" style="shape=image;verticalAlign=top;aspect=fixed;imageAspect=0;editableCssRules=.*;image=data:image/svg+xml,PHN2ZyB4bWxucz0iaHR0cDovL3d3dy53My5vcmcvMjAwMC9zdmciIHZpZXdCb3g9IjAgMCAyNTYgMzE3Ij48Zz48ZGVmcz48bGluZWFyR3JhZGllbnQgaWQ9ImxvZ29zRmx1dHRlcjAiIHgxPSIzLjk1MiUiIHgyPSI3NS44OTclIiB5MT0iMjYuOTkzJSIgeTI9IjUyLjkxOSUiPjxzdG9wIG9mZnNldD0iMCUiPjwvc3RvcD48c3RvcCBvZmZzZXQ9IjEwMCUiIHN0b3Atb3BhY2l0eT0iMCI+PC9zdG9wPjwvbGluZWFyR3JhZGllbnQ+PC9kZWZzPjxwYXRoIGZpbGw9IiM0N0M1RkIiIGQ9Ik0xNTcuNjY2LjAwMUwuMDAxIDE1Ny42NjZsNDguOCA0OC44TDI1NS4yNjguMDAxem0tMS4wOTkgMTQ1LjM5NmwtODQuNDE4IDg0LjQxOGw0OC45ODQgNDkuNzE2bDQ4LjcxLTQ4LjcxbDg1LjQyNS04NS40MjR6Ij48L3BhdGg+PHBhdGggZmlsbD0iIzAwNTY5RSIgZD0ibTEyMS4xMzMgMjc5LjUzMWwzNy4wODIgMzcuMDgyaDk3LjA1MmwtODUuNDI1LTg1Ljc5MnoiPjwvcGF0aD48cGF0aCBmaWxsPSIjMDBCNUY4IiBkPSJtNzEuNiAyMzAuMzY0bDQ4LjgwMS00OC44MDFsNDkuNDQxIDQ5LjI1OGwtNDguNzA5IDQ4LjcxeiI+PC9wYXRoPjxwYXRoIGZpbGw9InVybCgjbG9nb3NGbHV0dGVyMCkiIGZpbGwtb3BhY2l0eT0iLjgiIGQ9Im0xMjEuMTMzIDI3OS41MzFsNDAuNTYtMTMuNDU5bDQuMDI5LTMxLjEzMXoiPjwvcGF0aD48L2c+PC9zdmc+;labelPosition=center;verticalLabelPosition=bottom;align=center;" vertex="1" parent="1">
          <mxGeometry x="94.81" y="282" width="40.38" height="50" as="geometry" />
        </mxCell>
        <mxCell id="9qGcUn2LHYFX-ov_3anf-38" style="edgeStyle=entityRelationEdgeStyle;rounded=0;orthogonalLoop=1;jettySize=auto;html=1;entryX=0;entryY=0.5;entryDx=0;entryDy=0;" edge="1" parent="1" source="9qGcUn2LHYFX-ov_3anf-31" target="9qGcUn2LHYFX-ov_3anf-22">
          <mxGeometry relative="1" as="geometry" />
        </mxCell>
        <mxCell id="9qGcUn2LHYFX-ov_3anf-31" value="Fesmap" style="shape=image;verticalAlign=top;aspect=fixed;imageAspect=0;editableCssRules=.*;image=data:image/svg+xml,PHN2ZyB4bWxucz0iaHR0cDovL3d3dy53My5vcmcvMjAwMC9zdmciIHZpZXdCb3g9IjAgMCAyNCAyNCI+PGc+PGcgZmlsbD0ibm9uZSI+PGcgZmlsbD0iY3VycmVudENvbG9yIiBjbGlwLXBhdGg9InVybCgjbWFnZUxpbmUwKSIgY2xhc3M9ImcwLWZpbGwiPjxwYXRoIGQ9Ik05LjMzIDEyLjIydi41MmMwIC4wOS0uMDUuMTMtLjE0LjEzSDcuMTJjLS4xMiAwLS4xNiAwLS4xNi0uMTZWOS41YzAtLjEzIDAtLjE3LjE3LS4xN2guNDZjLjEyIDAgLjE2LjA1LjE2LjE2djIuNTZoMS40N2EuMTMuMTMgMCAwIDEgLjExNS4xMTNhLjEuMSAwIDAgMS0uMDA1LjA1N20xLjI4LTIuNzN2My4yMmMwIC4xMiAwIC4xNi0uMTcuMTZxLS4yNC4wMTUtLjQ4IDBhLjE0LjE0IDAgMCAxLS4xNi0uMTZWOS40OWEuMTUuMTUgMCAwIDEgLjItLjE3aC40N2EuMTUuMTUgMCAwIDEgLjE0LjE3bTMuNjMtLjAxdjMuMjNjMCAuMTEgMCAuMTUtLjE2LjE1aC0uNTFhLjE0LjE0IDAgMCAxLS4xMi0uMDZsLS43NS0xbC0uNy0uOTV2LS4wN3YxLjk0YzAgLjE0IDAgLjE3LS4xNy4xN2gtLjQ2YS4xNC4xNCAwIDAgMS0uMTU1LS4wOTVhLjE0LjE0IDAgMCAxLS4wMDUtLjA2NVY5LjVhLjE0LjE0IDAgMCAxIC4xNS0uMTVoLjU1YS4xMy4xMyAwIDAgMSAuMDkuMDZMMTMuMSAxMWwuMjkuMzl2LjA1VjkuNWMwLS4xMy4wNS0uMTguMTgtLjE4aC40NWMuMTYgMCAuMjIuMDUuMjIuMTZtMi45MS4wMnYuNWMwIC4xMSAwIC4xNi0uMTUuMTZoLTEuMzVjLS4wNyAwLS4wNyAwLS4wNy4wN3YuNDJjMCAuMDggMCAuMDguMDcuMDhIMTdjLjEzIDAgLjE3LjA1LjE3LjE4di40NmEuMTQuMTQgMCAwIDEtLjE2LjE2aC0xLjM2Yy0uMDcgMC0uMDcgMC0uMDcuMDhWMTJjMCAuMDggMCAuMDguMDcuMDhIMTdjLjEyIDAgLjE2IDAgLjE2LjE3di40NmMwIC4xMiAwIC4xNi0uMTYuMTZoLTIuMDVjLS4xOCAwLS4xNyAwLS4xNy0uMTZWOS41YzAtLjEyLjA1LS4xNy4xNy0uMTdoMmMuMTYgMCAuMi4wNS4yLjE3Ij48L3BhdGg+PHBhdGggZD0iTTE4IDJINmE0IDQgMCAwIDAtNCA0djEyYTQgNCAwIDAgMCA0IDRoMTJhNCA0IDAgMCAwIDQtNFY2YTQgNCAwIDAgMC00LTRtMS4xIDExYTYuNCA2LjQgMCAwIDEtMSAxLjU4YTE0IDE0IDAgMCAxLTIuMTggMnEtMS4zODEgMS4wODUtMi44OCAyYy0uMzEuMTktLjYzLjM2LS45NS41MmEuOTQuOTQgMCAwIDEtLjQ2LjEzYS4yMy4yMyAwIDAgMS0uMjctLjI2YTMgMyAwIDAgMSAwLS40MWE1IDUgMCAwIDAgLjExLS45NGEuNDguNDggMCAwIDAtLjI4LS40NWExLjcgMS43IDAgMCAwLS41My0uMTZhOC44IDguOCAwIDAgMS0yLjc2LS44OGE2LjkgNi45IDAgMCAxLTIuMTMtMS42OWE1LjUgNS41IDAgMCAxLTEuMjEtMi40NmMwLS4yMS0uMDYtLjQyLS4wOC0uNjRzMC0uNDEgMC0uNjJhNSA1IDAgMCAxIC4zNi0xLjYxQTYuMSA2LjEgMCAwIDEgNiA3LjI1YTcuNSA3LjUgMCAwIDEgMi41MS0xLjczQTkgOSAwIDAgMSAxMC4zNiA1bC43Ni0uMWgxLjY5YTguNiA4LjYgMCAwIDEgMy4yOC45NWMuNzEuMzY1IDEuMzU2Ljg0NCAxLjkxIDEuNDJhNS41IDUuNSAwIDAgMSAxLjI3IDIuMTRjLjExLjMyMy4xODEuNjYuMjEgMXYuNjVBNC43IDQuNyAwIDAgMSAxOS4xIDEzIj48L3BhdGg+PHBhdGggZD0iTTE0LjI0IDkuNDh2My4yM2MwIC4xMSAwIC4xNS0uMTYuMTVoLS41MWEuMTQuMTQgMCAwIDEtLjEyLS4wNmwtLjc1LTFsLS43LS45NXYtLjA3djEuOTRjMCAuMTQgMCAuMTctLjE3LjE3aC0uNDZhLjE0LjE0IDAgMCAxLS4xNTUtLjA5NWEuMTQuMTQgMCAwIDEtLjAwNS0uMDY1VjkuNWEuMTQuMTQgMCAwIDEgLjE1LS4xNWguNTVhLjEzLjEzIDAgMCAxIC4wOS4wNkwxMy4xIDExbC4yOS4zOXYuMDVWOS41YzAtLjEzLjA1LS4xOC4xOC0uMThoLjQ1Yy4xNiAwIC4yMi4wNS4yMi4xNm0xLjM0Ljcydi40MmMwIC4wOCAwIC4wOC4wNy4wOEgxN2MuMTMgMCAuMTcuMDUuMTcuMTh2LjQ2YS4xNC4xNCAwIDAgMS0uMTYuMTZoLTEuMzZjLS4wNyAwLS4wNyAwLS4wNy4wOFYxMmMwIC4wOCAwIC4wOC4wNy4wOEgxN2MuMTIgMCAuMTYgMCAuMTYuMTd2LjQ2YzAgLjEyIDAgLjE2LS4xNi4xNmgtMi4wNWMtLjE4IDAtLjE3IDAtLjE3LS4xNlY5LjVjMC0uMTIuMDUtLjE3LjE3LS4xN2gyYy4xMiAwIC4xNi4wNS4xNi4xN3YuNWMwIC4xMSAwIC4xNi0uMTUuMTZoLTEuMzFjLS4wNy0uMDMtLjA3LS4wMy0uMDcuMDRtLTYuMjUgMi4wMnYuNTJjMCAuMDktLjA1LjEzLS4xNC4xM0g3LjEyYy0uMTIgMC0uMTYgMC0uMTYtLjE2VjkuNWMwLS4xMyAwLS4xNy4xNy0uMTdoLjQ2Yy4xMiAwIC4xNi4wNS4xNi4xNnYyLjU2aDEuNDdhLjEzLjEzIDAgMCAxIC4xMTUuMTEzYS4xLjEgMCAwIDEtLjAwNS4wNTdtMS4yOC0yLjczdjMuMjJjMCAuMTIgMCAuMTYtLjE3LjE2cS0uMjQuMDE1LS40OCAwYS4xNC4xNCAwIDAgMS0uMTYtLjE2VjkuNDlhLjE1LjE1IDAgMCAxIC4yLS4xN2guNDdhLjE1LjE1IDAgMCAxIC4xNC4xNyI+PC9wYXRoPjwvZz48ZGVmcz48Y2xpcFBhdGggaWQ9Im1hZ2VMaW5lMCI+PHBhdGggZmlsbD0iI2ZmZiIgZD0iTTIgMmgyMHYyMEgyeiI+PC9wYXRoPjwvY2xpcFBhdGg+PC9kZWZzPjwvZz48c3R5bGU+LmcwLWZpbGx7ZmlsbDpjdXJyZW50Q29sb3J9PC9zdHlsZT48L2c+PC9zdmc+;labelPosition=center;verticalLabelPosition=bottom;align=center;" vertex="1" parent="1">
          <mxGeometry x="85" y="536" width="60" height="60" as="geometry" />
        </mxCell>
        <mxCell id="9qGcUn2LHYFX-ov_3anf-37" style="edgeStyle=entityRelationEdgeStyle;rounded=0;orthogonalLoop=1;jettySize=auto;html=1;exitX=1;exitY=0.5;exitDx=0;exitDy=0;" edge="1" parent="1" source="9qGcUn2LHYFX-ov_3anf-34" target="9qGcUn2LHYFX-ov_3anf-22">
          <mxGeometry relative="1" as="geometry" />
        </mxCell>
        <mxCell id="9qGcUn2LHYFX-ov_3anf-34" value="Fesmap&#xa;Organizers&#xa;" style="shape=image;verticalAlign=top;aspect=fixed;imageAspect=0;editableCssRules=.*;image=data:image/svg+xml,PHN2ZyB4bWxucz0iaHR0cDovL3d3dy53My5vcmcvMjAwMC9zdmciIHZpZXdCb3g9IjAgMCAyNCAyNCI+PGc+PHBhdGggZmlsbD0iY3VycmVudENvbG9yIiBkPSJtMTEuMzQ1IDIuNDA1bC0uMzAzLjAyN2MtMi44NC4yNTYtNS41MDEgMS43ODktNy4xODcgNC4xNDRhOS45IDkuOSAwIDAgMC0xLjc2NSA0LjM3Yy0uMDguNTQ4LS4wOS43MS0uMDkgMS40NTVzLjAxLjkwNy4wOSAxLjQ1N2MuNTQzIDMuNzU1IDMuMjE2IDYuOTEgNi44NCA4LjA3OWMuNjUuMjA5IDEuMzM0LjM1MSAyLjExMi40MzhjLjMwMy4wMzMgMS42MTMuMDMzIDEuOTE2IDBjMS4zNDMtLjE1IDIuNDgtLjQ4MSAzLjYwMy0xLjA1NGMuMTcyLS4wODguMjA1LS4xMTIuMTgyLS4xMzFjLS4wMTYtLjAxMi0uNzQ5LS45OTUtMS42MjktMi4xODRsLTEuNTk5LTIuMTZsLTIuMDA0LTIuOTY1YTI4NyAyODcgMCAwIDAtMi4wMTctMi45NjNjLS4wMDgtLjAwMi0uMDE2IDEuMzE1LS4wMiAyLjkyNGMtLjAwNiAyLjgxNy0uMDA4IDIuOTMtLjA0MyAyLjk5N2EuMzYuMzYgMCAwIDEtLjE3Mi4xNzhjLS4wNjMuMDMtLjExNy4wMzctLjQxMi4wMzdoLS4zMzlsLS4wOS0uMDU3YS40LjQgMCAwIDEtLjEzLS4xNDNsLS4wNDItLjA4OGwuMDA0LTMuOTE5bC4wMDYtMy45MjFsLjA2LS4wNzZhLjUuNSAwIDAgMSAuMTQ1LS4xMmMuMDgtLjAzOS4xMTItLjA0My40NS0uMDQzYy4zOTkgMCAuNDY1LjAxNi41NjkuMTNjLjAzLjAzIDEuMTE0IDEuNjY1IDIuNDEyIDMuNjMzbDMuOTQ2IDUuOTc2bDEuNTgzIDIuMzk4bC4wOC0uMDUyYy43MS0uNDYyIDEuNDYtMS4xMTggMi4wNTUtMS44MDNhOS45NSA5Ljk1IDAgMCAwIDIuMzU0LTUuMTExYy4wOC0uNTUuMDktLjcxMi4wOS0xLjQ1N2MwLS43NDQtLjAxLS45MDctLjA5LTEuNDU2Yy0uNTQzLTMuNzU1LTMuMjE2LTYuOTEtNi44NC04LjA3OWExMC41IDEwLjUgMCAwIDAtMi4wODMtLjQzNmMtLjE4Ny0uMDItMS40OC0uMDQtMS42NDItLjAyNW00LjA5NCA2LjA0OGMuMDk0LjA0Ny4xNy4xMzcuMTk3LjIzYy4wMTYuMDUxLjAyIDEuMTM4LjAxNiAzLjU4N2wtLjAwNiAzLjUxNWwtLjYyLS45NWwtLjYyMS0uOTVWMTEuMzNjMC0xLjY1Mi4wMDgtMi41OC4wMi0yLjYyNWEuNC40IDAgMCAxIC4xOTMtLjI0NmMuMDgtLjA0MS4xMS0uMDQ1LjQxNi0uMDQ1Yy4yOSAwIC4zNC4wMDQuNDA1LjAzOSIgY2xhc3M9InAwLWZpbGwiPjwvcGF0aD48c3R5bGU+LnAwLWZpbGx7ZmlsbDpjdXJyZW50Q29sb3J9PC9zdHlsZT48L2c+PC9zdmc+;labelPosition=center;verticalLabelPosition=bottom;align=center;" vertex="1" parent="1">
          <mxGeometry x="83.25" y="399.25" width="63.5" height="63.5" as="geometry" />
        </mxCell>
      </root>
    </mxGraphModel>
  </diagram>
</mxfile>
